/* XPM */
static char *_0d59b56b65841b0c907d4182c308ac05iiob2772AHE4e0t[] = {
/* columns rows colors chars-per-pixel */
"60 60 6 1 ",
"  c black",
". c #0B1E7A",
"X c #0E2597",
"o c #0D2598",
"O c #1230C5",
"+ c #163BF3",
/* pixels */
"++++++++++++++++++++++++++++++++++++++++++++++++++++++++++++",
"++++++++++++++++++++++++++++++++++++++++++++++++++++++++++++",
"++++++++++++++++++++++++++++++++++++++++++++++++++++++++++++",
"++++++++++++++++++++++++++++++++++++++++++++++++++++++++++++",
"++++++++++++++++++++++++++++++++++++++++++++++++++++++++++++",
"++++++++++++++++++++++++++++++++++++++++++++++++++++++++++++",
"++++++++++++++++++++++++++++++++++++++++++++++++++++++++++++",
"++++++++++++++++++++++++++++++++++++++++++++++++++++++++++++",
"+++++++++++O++++++++++++++++++++++++++++++++++++O+++++++++++",
"++++++++++. o++++++++++++++++++++++++++++++++++X .++++++++++",
"+++++++++.   o++++++++++++++++++++++++++++++++X   .+++++++++",
"++++++++O     o++++++++++++++++++++++++++++++X     O++++++++",
"+++++++++o     o++++++++++++++++++++++++++++X     X+++++++++",
"++++++++++o     o++++++++++++++++++++++++++X     X++++++++++",
"+++++++++++o     o++++++++++++++++++++++++X     X+++++++++++",
"++++++++++++o     o++++++++++++++++++++++X     X++++++++++++",
"+++++++++++++o     o++++++++++++++++++++X     X+++++++++++++",
"++++++++++++++o     o++++++++++++++++++X     X++++++++++++++",
"+++++++++++++++o     o++++++++++++++++X     X+++++++++++++++",
"++++++++++++++++o     o++++++++++++++X     X++++++++++++++++",
"+++++++++++++++++o     o++++++++++++X     X+++++++++++++++++",
"++++++++++++++++++o     o++++++++++X     X++++++++++++++++++",
"+++++++++++++++++++o     o++++++++X     X+++++++++++++++++++",
"++++++++++++++++++++o     o++++++X     X++++++++++++++++++++",
"+++++++++++++++++++++o     o++++X     X+++++++++++++++++++++",
"++++++++++++++++++++++o     o++X     X++++++++++++++++++++++",
"+++++++++++++++++++++++o     oo     X+++++++++++++++++++++++",
"++++++++++++++++++++++++o          X++++++++++++++++++++++++",
"+++++++++++++++++++++++++o        X+++++++++++++++++++++++++",
"++++++++++++++++++++++++++o      X++++++++++++++++++++++++++",
"++++++++++++++++++++++++++o      o++++++++++++++++++++++++++",
"+++++++++++++++++++++++++o        o+++++++++++++++++++++++++",
"++++++++++++++++++++++++X          o++++++++++++++++++++++++",
"+++++++++++++++++++++++X     Xo     o+++++++++++++++++++++++",
"++++++++++++++++++++++X     X++o     o++++++++++++++++++++++",
"+++++++++++++++++++++X     X++++o     o+++++++++++++++++++++",
"++++++++++++++++++++X     X++++++o     o++++++++++++++++++++",
"+++++++++++++++++++X     X++++++++o     o+++++++++++++++++++",
"++++++++++++++++++X     X++++++++++o     o++++++++++++++++++",
"+++++++++++++++++X     X++++++++++++o     o+++++++++++++++++",
"++++++++++++++++X     X++++++++++++++o     o++++++++++++++++",
"+++++++++++++++X     X++++++++++++++++o     o+++++++++++++++",
"++++++++++++++X     X++++++++++++++++++o     o++++++++++++++",
"+++++++++++++X     X++++++++++++++++++++o     o+++++++++++++",
"++++++++++++X     X++++++++++++++++++++++o     o++++++++++++",
"+++++++++++X     X++++++++++++++++++++++++o     o+++++++++++",
"++++++++++X     X++++++++++++++++++++++++++o     o++++++++++",
"+++++++++X     X++++++++++++++++++++++++++++o     o+++++++++",
"++++++++O     X++++++++++++++++++++++++++++++o     O++++++++",
"+++++++++.   X++++++++++++++++++++++++++++++++o   .+++++++++",
"++++++++++. X++++++++++++++++++++++++++++++++++o .++++++++++",
"+++++++++++O++++++++++++++++++++++++++++++++++++O+++++++++++",
"++++++++++++++++++++++++++++++++++++++++++++++++++++++++++++",
"++++++++++++++++++++++++++++++++++++++++++++++++++++++++++++",
"++++++++++++++++++++++++++++++++++++++++++++++++++++++++++++",
"++++++++++++++++++++++++++++++++++++++++++++++++++++++++++++",
"++++++++++++++++++++++++++++++++++++++++++++++++++++++++++++",
"++++++++++++++++++++++++++++++++++++++++++++++++++++++++++++",
"++++++++++++++++++++++++++++++++++++++++++++++++++++++++++++",
"++++++++++++++++++++++++++++++++++++++++++++++++++++++++++++"
};
