/* XPM */
static char *_5e42d69af9a48e7d905756b7d85a156Oa757Bovt5L8XJ6r[] = {
/* columns rows colors chars-per-pixel */
"60 60 9 1 ",
"  c None",
". c #FDD740",
"X c #FDD840",
"o c #FDD940",
"O c #FED840",
"+ c #FFD840",
"@ c #FED940",
"# c #FEDA40",
"$ c #FFDA40",
/* pixels */
"                         @@@@@@@@@@.                        ",
"                     @@@@@@@@@@@@@@@@@@                     ",
"                  @@@@@@@@@@@@@@@@@@@@@@@@                  ",
"                @@@@@@@@@@@@@@@@@@@@@@@@@@@@                ",
"              @@@@@@@@@@@@@@@@@@@@@@@@@@@@@@@@              ",
"             @@@@@@@@@@@@@@@@@@@@@@@@@@@@@@@@@@             ",
"           @@@@@@@@@@@@@@@@@@@@@@@@@@@@@@@@@@@@@@           ",
"          @@@@@@@@@@@@@@@@@@@@@@@@@@@@@@@@@@@@@@@@          ",
"         @@@@@@@@@@@@@@@@@@@@@@@@@@@@@@@@@@@@@@@@@@         ",
"        @@@@@@@@@@@@@@@@@@@@@@@@@@@@@@@@@@@@@@@@@@.         ",
"       @@@@@@@@@@@@@@@@@@@@@@@@@@@@@@@@@@@@@@@@@@.          ",
"      @@@@@@@@@@@@@@@@@@@@@@@@@@@@@@@@@@@@@@@@@@.           ",
"      @@@@@@@@@@@@@@@@@@@@@@@@@@@@@@@@@@@@@@@@@.            ",
"     @@@@@@@@@@@@@@@@@@@@@@@@@@@@@@@@@@@@@@@@@.             ",
"    @@@@@@@@@@@@@@@@@@@@@@@@@@@@@@@@@@@@@@@@@.              ",
"    @@@@@@@@@@@@@@@@@@@@@@@@@@@@@@@@@@@@@@@@.               ",
"   @@@@@@@@@@@@@@@@@@@@@@@@@@@@@@@@@@@@@@@@.                ",
"   @@@@@@@@@@@@@@@@@@@@@@@@@@@@@@@@@@@@@@@.                 ",
"  @@@@@@@@@@@@@@@@@@@@@@@@@@@@@@@@@@@@@@@.                  ",
"  @@@@@@@@@@@@@@@@@@@@@@@@@@@@@@@@@@@@@@.                   ",
"  @@@@@@@@@@@@@@@@@@@@@@@@@@@@@@@@@@@@@.                    ",
" @@@@@@@@@@@@@@@@@@@@@@@@@@@@@@@@@@@@@.                     ",
" @@@@@@@@@@@@@@@@@@@@@@@@@@@@@@@@@@@@.                      ",
" @@@@@@@@@@@@@@@@@@@@@@@@@@@@@@@@@@@.                       ",
".@@@@@@@@@@@@@@@@@@@@@@@@@@@@@@@@@@.                        ",
"@@@@@@@@@@@@@@@@@@@@@@@@@@@@@@@@@@.                         ",
"@@@@@@@@@@@@@@@@@@@@@@@@@@@@@@@@@.                          ",
"@@@@@@@@@@@@@@@@@@@@@@@@@@@@@@@@.                           ",
"@@@@@@@@@@@@@@@@@@@@@@@@@@@@@@@.                            ",
"@@@@@@@@@@@@@@@@@@@@@@@@@@@@@@.                             ",
"@@@@@@@@@@@@@@@@@@@@@@@@@@@@@@                              ",
"@@@@@@@@@@@@@@@@@@@@@@@@@@@@@@@                             ",
"@@@@@@@@@@@@@@@@@@@@@@@@@@@@@@@@                            ",
"@@@@@@@@@@@@@@@@@@@@@@@@@@@@@@@@@                           ",
".@@@@@@@@@@@@@@@@@@@@@@@@@@@@@@@@@                          ",
" @@@@@@@@@@@@@@@@@@@@@@@@@@@@@@@@@@                         ",
" @@@@@@@@@@@@@@@@@@@@@@@@@@@@@@@@@@@                        ",
" @@@@@@@@@@@@@@@@@@@@@@@@@@@@@@@@@@@@                       ",
" @@@@@@@@@@@@@@@@@@@@@@@@@@@@@@@@@@@@@                      ",
"  @@@@@@@@@@@@@@@@@@@@@@@@@@@@@@@@@@@@@                     ",
"  @@@@@@@@@@@@@@@@@@@@@@@@@@@@@@@@@@@@@@                    ",
"  @@@@@@@@@@@@@@@@@@@@@@@@@@@@@@@@@@@@@@@                   ",
"   @@@@@@@@@@@@@@@@@@@@@@@@@@@@@@@@@@@@@@@                  ",
"   @@@@@@@@@@@@@@@@@@@@@@@@@@@@@@@@@@@@@@@@                 ",
"    @@@@@@@@@@@@@@@@@@@@@@@@@@@@@@@@@@@@@@@@                ",
"    @@@@@@@@@@@@@@@@@@@@@@@@@@@@@@@@@@@@@@@@@               ",
"     @@@@@@@@@@@@@@@@@@@@@@@@@@@@@@@@@@@@@@@@@              ",
"      @@@@@@@@@@@@@@@@@@@@@@@@@@@@@@@@@@@@@@@@@             ",
"      @@@@@@@@@@@@@@@@@@@@@@@@@@@@@@@@@@@@@@@@@@            ",
"       @@@@@@@@@@@@@@@@@@@@@@@@@@@@@@@@@@@@@@@@@@           ",
"        @@@@@@@@@@@@@@@@@@@@@@@@@@@@@@@@@@@@@@@@@@          ",
"         @@@@@@@@@@@@@@@@@@@@@@@@@@@@@@@@@@@@@@@@@@         ",
"          @@@@@@@@@@@@@@@@@@@@@@@@@@@@@@@@@@@@@@@@          ",
"           @@@@@@@@@@@@@@@@@@@@@@@@@@@@@@@@@@@@@@           ",
"             @@@@@@@@@@@@@@@@@@@@@@@@@@@@@@@@@@             ",
"              .@@@@@@@@@@@@@@@@@@@@@@@@@@@@@@@              ",
"                @@@@@@@@@@@@@@@@@@@@@@@@@@@@                ",
"                  @@@@@@@@@@@@@@@@@@@@@@@@                  ",
"                     @@@@@@@@@@@@@@@@@@                     ",
"                        .@@@@@@@@@@                         "
};
