/* XPM */
static char *_3ef671be8354087bf50517ea12ad1e504LdTGVLDlPqc1hh[] = {
/* columns rows colors chars-per-pixel */
"60 60 10 1 ",
"  c None",
". c #FDD740",
"X c #FDD840",
"o c #FED840",
"O c #FFD840",
"+ c #FED940",
"@ c #FFD940",
"# c #FEDA40",
"$ c #FFDA40",
"% c #FFDB40",
/* pixels */
"                         ++++++++++.                        ",
"                     ++++++++++++++++++                     ",
"                  ++++++++++++++++++++++++                  ",
"                ++++++++++++++++++++++++++++                ",
"              ++++++++++++++++++++++++++++++++              ",
"             ++++++++++++++++++++++++++++++++++             ",
"           ++++++++++++++++++++++++++++++++++++++           ",
"          ++++++++++++++++++++++++++++++++++++++++          ",
"         ++++++++++++++++++++++++++++++++++++++++++         ",
"         .++++++++++++++++++++++++++++++++++++++++++        ",
"          .++++++++++++++++++++++++++++++++++++++++++       ",
"           .++++++++++++++++++++++++++++++++++++++++++      ",
"            .+++++++++++++++++++++++++++++++++++++++++      ",
"             .+++++++++++++++++++++++++++++++++++++++++     ",
"              .+++++++++++++++++++++++++++++++++++++++++    ",
"               .++++++++++++++++++++++++++++++++++++++++    ",
"                .++++++++++++++++++++++++++++++++++++++++   ",
"                 .+++++++++++++++++++++++++++++++++++++++   ",
"                  .+++++++++++++++++++++++++++++++++++++++  ",
"                   .++++++++++++++++++++++++++++++++++++++  ",
"                    .+++++++++++++++++++++++++++++++++++++  ",
"                     .+++++++++++++++++++++++++++++++++++++ ",
"                      .++++++++++++++++++++++++++++++++++++ ",
"                       .+++++++++++++++++++++++++++++++++++ ",
"                        .++++++++++++++++++++++++++++++++++ ",
"                         .++++++++++++++++++++++++++++++++++",
"                          .+++++++++++++++++++++++++++++++++",
"                           .++++++++++++++++++++++++++++++++",
"                            .+++++++++++++++++++++++++++++++",
"                             .++++++++++++++++++++++++++++++",
"                              ++++++++++++++++++++++++++++++",
"                             +++++++++++++++++++++++++++++++",
"                           +++++++++++++++++++++++++++++++++",
"                          ++++++++++++++++++++++++++++++++++",
"                         +++++++++++++++++++++++++++++++++++",
"                        +++++++++++++++++++++++++++++++++++ ",
"                       ++++++++++++++++++++++++++++++++++++ ",
"                      +++++++++++++++++++++++++++++++++++++ ",
"                     ++++++++++++++++++++++++++++++++++++++ ",
"                    ++++++++++++++++++++++++++++++++++++++  ",
"                   +++++++++++++++++++++++++++++++++++++++  ",
"                  ++++++++++++++++++++++++++++++++++++++++  ",
"                 ++++++++++++++++++++++++++++++++++++++++   ",
"                +++++++++++++++++++++++++++++++++++++++++   ",
"               +++++++++++++++++++++++++++++++++++++++++    ",
"              ++++++++++++++++++++++++++++++++++++++++++    ",
"             ++++++++++++++++++++++++++++++++++++++++++     ",
"            ++++++++++++++++++++++++++++++++++++++++++      ",
"           +++++++++++++++++++++++++++++++++++++++++++      ",
"          +++++++++++++++++++++++++++++++++++++++++++       ",
"          ++++++++++++++++++++++++++++++++++++++++++        ",
"         ++++++++++++++++++++++++++++++++++++++++++         ",
"          ++++++++++++++++++++++++++++++++++++++++          ",
"           ++++++++++++++++++++++++++++++++++++++           ",
"             ++++++++++++++++++++++++++++++++++             ",
"              .+++++++++++++++++++++++++++++++              ",
"                ++++++++++++++++++++++++++++                ",
"                  ++++++++++++++++++++++++                  ",
"                     ++++++++++++++++++                     ",
"                        .++++++++++                         "
};
