/* XPM */
static char *f242033ecbe547e2974914cf420604cdjTnXdJk7HaEaGBF7[] = {
/* columns rows colors chars-per-pixel */
"68 68 84 1 ",
"  c None",
". c #9C141A",
"X c #AC171D",
"o c #B3181F",
"O c #BC1B20",
"+ c #C81C22",
"@ c #C91C22",
"# c #CB1C22",
"$ c #CB1D22",
"% c #CD1D22",
"& c #CD1C23",
"* c #CF1D23",
"= c #D01C23",
"- c #D01D23",
"; c #D51D23",
": c #D61E23",
"> c #D31D24",
", c #D51D24",
"< c #D81E25",
"1 c #D91E25",
"2 c #DA1E25",
"3 c #DB1E25",
"4 c #DD1F25",
"5 c #DE1F25",
"6 c #DD1F26",
"7 c #DE1E26",
"8 c #DE1F26",
"9 c #C1292E",
"0 c #DE242B",
"q c #DE2829",
"w c #DE2C2A",
"e c #DE312C",
"r c #DE2E35",
"t c #D73137",
"y c #DE3136",
"u c #DE333A",
"i c #DE3439",
"p c #A66F36",
"a c #A77036",
"s c #B0743A",
"d c #B4763A",
"f c #B87A3B",
"g c #BB7B3C",
"h c #BC7B3D",
"j c #BD7F3F",
"k c #BE7F3E",
"l c #BE7F3F",
"z c #DE4531",
"x c #DE4C34",
"c c #DE6039",
"v c #DB653B",
"b c #DE653B",
"n c #DE663B",
"m c #DE683B",
"M c #DE6B3C",
"N c #DE6B3D",
"B c #DD6E3D",
"V c #DE3C42",
"C c #DE444A",
"Z c #DE464B",
"A c #DE494F",
"S c #DE6065",
"D c #C18040",
"F c #C48141",
"G c #C58242",
"H c #C78641",
"J c #CD8241",
"K c #C98642",
"L c #CB8642",
"P c #CC8743",
"I c #CB8744",
"U c #D08A45",
"Y c #D38C45",
"T c #D68E45",
"R c #D78E45",
"E c #DE9348",
"W c #DE9449",
"Q c #DF9449",
"! c #DE9A9C",
"~ c #DF9C9D",
"^ c #DFCDCE",
"/ c #DEDFDF",
"( c #DEE0E0",
") c #DFE0E0",
/* pixels */
"                                                                    ",
"                                                                    ",
"                                                                    ",
"                                                                    ",
"                                                                    ",
"                                                                    ",
"                                                                    ",
"                                                 QQQQQQQQ           ",
"                                                 QQQQQQQQ           ",
"                                                 QQQQQQQQ           ",
"                                                 QQQQQQQQ           ",
"                                        PQQQQQQQQQQQQQQQQ           ",
"                                        KQQQQQQQQQQQQQQQQ           ",
"                                        KQQQQQQQQQQQQQQQQ           ",
"                                        KQQQQQQQQQQQQQQQQ           ",
"                                TTTTTTTTs   fQQQY                   ",
"                                QQQQQQQQ    kQQQU                   ",
"                                QQQQQQQQ    kQQQU                   ",
"                                QQQQQQQQ    kQQQU                   ",
"                            IIIkpaaaaaaa    kQQQU                   ",
"                            QQQT            kQQQU                   ",
"                            QQQT            kQQQU                   ",
"                            QQQT            kQQQU                   ",
"                           gkkkf            hkkkd                   ",
"               88888888nQQQH            KQQED                       ",
"               88888888nQQQK            KQQEG                       ",
"               88888888nQQQK            KQQQG                       ",
"               88888888nQQQJ            KQQEG                       ",
"           888888888888nQQQm888:        KQQEG                       ",
"           888888888888nQQQm888,        KQQQG                       ",
"           888888888888nQQQm888,        KQQEG                       ",
"           888888888888nQQQm888,        KQQEG                       ",
"           888888888888weeeq888,    ><<<BQQQv<<<%                   ",
"           88888888888888888888,    <888NQQEc888-                   ",
"           88888888888888888888:    <888NQQEc888%                   ",
"           88888888888888888888,    <888NQQQc888-                   ",
"           888r~~~~i8888888$...X%%%%<888NQQEc888<%%%%               ",
"           888u((((Z8888888$    88888888NQQEc88888888               ",
"           888u((((Z8888888$    88888888NQQQc88888888               ",
"           888u((((Z8888888$    88888888NQQEc88888888               ",
"           OOO9!!!!V8888888$    88888888xnnnz88888888               ",
"               888888888888$    888888888888888888888               ",
"               888888888888$    888888888888888888888               ",
"               888888888888$    888888888888888888888               ",
"               $$$$$$$$$$$$o    8888ZAAAy888888888888               ",
"                                8888^(((S888888888888               ",
"                                8888^/((S888888888888               ",
"                                8888^(((S888888888888               ",
"                                8888^(((S888888888888               ",
"                                    tuuu08888888-                   ",
"                                    <88888888888-                   ",
"                                    <88888888888-                   ",
"                                    <88888888888-                   ",
"                                                                    ",
"                                                                    ",
"                                                                    ",
"                                                                    ",
"                                                                    ",
"                                                                    ",
"                                                                    ",
"                                                                    ",
"                                                                    ",
"                                                                    ",
"                                                                    ",
"                                                                    ",
"                                                                    ",
"                                                                    ",
"                                                                    "
};
