/* XPM */
static char *_b127bf1e0d843f7c8d5de13811ca87cHAgiKir3RFWbHebq[] = {
/* columns rows colors chars-per-pixel */
"68 68 136 2 ",
"   c None",
".  c #050505",
"X  c #080706",
"o  c #0B0A06",
"O  c #0F0D08",
"+  c #100F07",
"@  c #110F08",
"#  c #121007",
"$  c #141209",
"%  c #19160A",
"&  c #1D190B",
"*  c #221D0C",
"=  c #26210D",
"-  c #2B250E",
";  c #2F290F",
":  c #322B0F",
">  c #312A0F",
",  c #322C0F",
"<  c #312A0F",
"1  c #2F2A10",
"2  c #302A10",
"3  c #312A10",
"4  c #312B10",
"5  c #322B10",
"6  c #332C10",
"7  c #332C11",
"8  c #332D11",
"9  c #352D10",
"0  c #342D11",
"q  c #352E10",
"w  c #352F10",
"e  c #352E11",
"r  c #362F11",
"t  c #372F11",
"y  c #342D10",
"u  c #373010",
"i  c #373011",
"p  c #383110",
"a  c #383011",
"s  c #383111",
"d  c #393111",
"f  c #393211",
"g  c #3A3211",
"h  c #3B3311",
"j  c #393112",
"k  c #393212",
"l  c #3A3212",
"z  c #3B3312",
"x  c #3C3312",
"c  c #3C3412",
"v  c #3D3512",
"b  c #3E3512",
"n  c #3E3513",
"m  c #3E3612",
"M  c #3F3612",
"N  c #3F3613",
"B  c #3F3713",
"V  c #3B3312",
"C  c #403612",
"Z  c #403712",
"A  c #403713",
"S  c #403713",
"D  c #403813",
"F  c #413813",
"G  c #413913",
"H  c #423813",
"J  c #423913",
"K  c #423814",
"L  c #433A14",
"P  c #443A14",
"I  c #443B14",
"U  c #453B14",
"Y  c #453C14",
"T  c #453C15",
"R  c #463C14",
"E  c #473C14",
"W  c #473D14",
"Q  c #463C15",
"!  c #473D15",
"~  c #443B14",
"^  c #483D14",
"/  c #483E15",
"(  c #493F15",
")  c #483E15",
"_  c #4A4015",
"`  c #4B4015",
"'  c #4B4115",
"]  c #4B4016",
"[  c #4D4215",
"{  c #4C4116",
"}  c #4C4216",
"|  c #4D4216",
" . c #4D4316",
".. c #4E4316",
"X. c #4E4317",
"o. c #4F4416",
"O. c #4F4417",
"+. c #4C4216",
"@. c #504517",
"#. c #514517",
"$. c #514617",
"%. c #524616",
"&. c #524617",
"*. c #524717",
"=. c #534717",
"-. c #524617",
";. c #534817",
":. c #544817",
">. c #524718",
",. c #524718",
"<. c #544818",
"1. c #544918",
"2. c #554918",
"3. c #554919",
"4. c #564A18",
"5. c #574A18",
"6. c #574B18",
"7. c #584B18",
"8. c #584B19",
"9. c #584C19",
"0. c #594C19",
"q. c #5A4D19",
"w. c #5A4E19",
"e. c #5B4E19",
"r. c #5B4E1A",
"t. c #5C4F19",
"y. c #5C4F1A",
"u. c #5C5019",
"i. c #5E5019",
"p. c #5E5119",
"a. c #5C501A",
"s. c #5D501A",
"d. c #5E511A",
"f. c #5F521A",
"g. c #5F521B",
"h. c #60521B",
/* pixels */
"        . . . . . . . . . . . . . . . . . . . . . . . . . . . . . . . . . . . . . . . . . . . . . . . . . . . . . . . . . . . .         ",
"        . . . . . . . . . . . . . . . . . . . . . . . . . . . . . . . . . . . . . . . . . . . . . . . . . . . . . . . . . . . .         ",
"        . . . . . . . . . . . . . . . . . . . . . . . . . . . . . . . . . . . . . . . . . . . . . . . . . . . . . . . . . . . .         ",
"        . . . . . . . . . . . . . . . . . . . . . . . . . . . . . . . . . . . . . . . . . . . . . . . . . . . . . . . . . . . .         ",
"        . . . . . . . . . . . . . . . . . . . . . . . . . . . . . . . . . . . . . . . . . . . . . . . . . . . . . . . . . . . .         ",
"        . . . . . . . . . . . . . . . . . . . . . . . . . . . . . . . . . . . . . . . . . . . . . . . . . . . . . . . . . . . .         ",
"        . . . . . . . . . . . . . . . . . . . . . . . . . . . . . . . . . . . . . . . . . . . . . . . . . . . . . . . . . . . .         ",
"        . . . . . . . . . . . . . . . . . . . . . . . . . . . . . . . . . . . . . . . . . . . . . . . . . . . . . . . . . . . .         ",
"        . . . . . . . . . . . . . . . . . . . . . . . . X . . . . . . . . . . . . . . . . . . . . . . . . . . . . . . . . . . .         ",
"        . . . . . . . . . . . . . . . . . . . . . . . . . . X . X . . X X X X X X X . . . . . . . . . . . . . . . . . . . . . .         ",
"        . . . . . . . . . . . . . . . . . . . . X X X X X X X X X X X X X X X X X X . . X . . . . . . . . . . . . . . . . . . .         ",
"        . . . . . . . . . . . . . . . . . . . X X X X X X X X X X X X X X X X X X X X X . . X . . . . . . . . . . . . . . . . .         ",
"        . . . . . . . . . . . . . . . . . . X X X X X X X o X o o O o o O O X X X X X X X X X . . . . . . . . . . . . . . . . .         ",
"        . . . . . . . . . . . . . . . X X X X X X X o O O O O O O + O O O O O O o o O X X X X X . . . . . . . . . . . . . . . .         ",
"        . . . . . . . . . . . . . X X X X X X X O O O O @ @ @ # # # # # # @ @ + O O O X X X X X . . . . . . . . . . . . . . . .         ",
"        . . . . . . . . . . . . X X X X X X O O O O @ # # $ $ $ % % % % $ $ $ # # @ O O O X X X X X . . . . . . . . . . . . . .         ",
"        . . . . . . . . . . . . . X X X X o O @ @ # # % % % % & & & & & % % % % $ # # + O O X X X X . . . . . . . . . . . . . .         ",
"        . . . . . . . . . . . . X X X X o O + # $ $ % % & & & * * * * * & & & % % % $ # @ O O X X X . . . . . . . . . . . . . .         ",
"        . . . . . . . . . . . . X X X X O @ # $ % % & & * * = = = = = = = * * * & & % $ $ # O O o X X X . . . . . . . . . . . .         ",
"        . . . . . . . . . . . . X X X O O @ $ % % & & * = = - - - - - - - - = = * & & % % # @ O O X X X . . . . . . . . . . . .         ",
"        . . . . . . . . . . . X X X o O + $ $ % & & * = - ; < 2 8 e 8 8 2 ; - - = * * & % $ # @ O O X X X . . . . . . . . . . .         ",
"        . . . . . . . . . . . . X o O O # $ % & * * = - ; 8 e g g g g g g e 8 < - = * * & % $ @ O O X X X . . . . . . . . . . .         ",
"        . . . . . . . . . . X X X o O @ $ % & & * = - < e g m m A K H A m m g e 2 - = * & % % # # O X X X X X . . . . . . . . .         ",
"        . . . . . . . . . X X X X o O # $ % & * = - 2 e g m H Q Q / Q Q Q H m g e < - = * & % $ # O o X X X X . . . . . . . . .         ",
"        . . . . . . . . . X X X o O @ # % & * = - 2 e g A I / _ } } O.} _ Q I m g e ; - * & & % # O o X X X . . . . . . . . . .         ",
"        . . . . . . . . X X X X o O @ $ % & * = - 8 g m I / } *.*.:.<.*.*.} / K m g 2 - = * & % $ @ O X X X X . . . . . . . . .         ",
"        . . . . . . . . X X X X o O # $ % & * - 1 e x H / } *.<.8.9.9.<.<.*.} Q H g e ; - * & % $ @ O X X X . . . . . . . . . .         ",
"        . . . . . . . . X X X X o O # $ % & = - < g m I _ *.<.9.9.y.y.9.9.<.*.} I m u < - * & % $ @ O o X X . . . . . . . . . .         ",
"        . . . . . . . . . . X X o O # % & * = - 2 g m Q } >.8.y.a.a.a.a.9.<.*.} Q A g < - = * & $ # O o X X . . . . . . . . . .         ",
"        . . . . . . . . . X X X O @ # % & * = - 2 g H / } <.9.y.h.h.h.a.9.8.*.} Q A g < - = * % $ # O o X X . . . . . . . . . .         ",
"        . . . . . . . . . X X X o @ # % & * = - 8 g H Q } <.9.a.a.h.a.a.y.<.*.} / A g 8 - = * & $ + O X X X . . . . . . . . . .         ",
"        . . . . . . . . . X X X O O # % % & = - 8 g A Q } *.<.9.a.a.a.a.9.<.*.} Q m g , - = * % $ # O X X X . . . . . . . . . .         ",
"        . . . . . . . . X . X X o O # $ % & = - 2 g m I _ *.<.<.9.y.9.9.8.<.O._ I m e < - = & % $ @ O X X . X . . . . . . . . .         ",
"        . . . . . . . . X X X X o O # $ % & * - ; e g H Q } *.<.8.8.<.<.;.*.} Q H g e ; = * & % $ @ O X X X X . . . . . . . . .         ",
"        . . . . . . . . . X X X o O @ $ % & * = - 8 g m K / } O.*.>.*.*.O.} / H m g < - = * & % $ @ o X X . . . . . . . . . . .         ",
"        . . . . . . . . . X X X X O @ # % & * = - ; e g m I Q _ } } } _ / / H m g e ; - * & % $ # @ O X X X . . . . . . . . . .         ",
"        . . . . . . . . . . X X X o @ # $ % & * = - < e g m H H Q Q Q Q H H m g e < - = * & % $ + O o X X X . . . . . . . . . .         ",
"        . . . . . . . . . . . X X o O @ $ % & & * = - < e g g m m A A m m g u e < - = * & % % # O O X X X . . . . . . . . . . .         ",
"        . . . . . . . . . . X X X o o O # $ % & & * = - ; < e u g g g u e e 2 - - = * & & % $ @ O o X X X X . . . . . . . . . .         ",
"        . . . . . . . . . . . X X X o O + # $ % & * * = - - - < 2 < < < < - - = = * & & % $ # O O X X X X . . . . . . . . . . .         ",
"        . . . . . . . . . . . . X X X O O # $ % % & & * * = = - - - - - - = = * * & & % $ # @ O o X X X . . . . . . . . . . . .         ",
"        . . . . . . . . . . . . . X X X O + # # $ % % & & * * * = = = = * * * & & % % $ # O O O X X X . . . . . . . . . . . . .         ",
"        . . . . . . . . . . . . . X X X X O O + # $ % % % & & & & & & & & & & % % $ # # + O O o X X X . . . . . . . . . . . . .         ",
"        . . . . . . . . . . . . . . . X X o O O @ + # $ % % % % % % % % % % % $ $ # # @ O o X X X X X . . . . . . . . . . . . .         ",
"        . . . . . . . . . . . . . . X X X X X O O O @ # # $ $ $ $ $ $ $ $ $ # # @ + O O o X X X X . . . . . . . . . . . . . . .         ",
"        . . . . . . . . . . . . . . X X X X X X X o O + @ @ + # # @ + @ @ @ + O O O o X X X X X . . . . . . . . . . . . . . . .         ",
"        . . . . . . . . . . . . . . X . X X X X X X X o O O O O O O O O O O O O o X X X X X X X . . . . . . . . . . . . . . . .         ",
"        . . . . . . . . . . . . . . . . . X . X X X X X X X o o X o o o o X X X X X X X X X X . . . . . . . . . . . . . . . . .         ",
"        . . . . . . . . . . . . . . . . . . . . . X X X X X X X X X X X X X X X X X X . . . . . . . . . . . . . . . . . . . . .         ",
"        . . . . . . . . . . . . . . . . . . . . . . . . X X X X X X X X X X X X X . . . . . . . . . . . . . . . . . . . . . . .         ",
"        . . . . . . . . . . . . . . . . . . . . . . . . . . . . X X . . . . . . . . . . . . . . . . . . . . . . . . . . . . . .         ",
"        . . . . . . . . . . . . . . . . . . . . . . . . . . . . . . . . . . . . . . . . . . . . . . . . . . . . . . . . . . . .         ",
"        . . . . . . . . . . . . . . . . . . . . . . . . . . . . . . . . . . . . . . . . . . . . . . . . . . . . . . . . . . . .         ",
"        . . . . . . . . . . . . . . . . . . . . . . . . . . . . . . . . . . . . . . . . . . . . . . . . . . . . . . . . . . . .         ",
"        . . . . . . . . . . . . . . . . . . . . . . . . . . . . . . . . . . . . . . . . . . . . . . . . . . . . . . . . . . . .         ",
"        . . . . . . . . . . . . . . . . . . . . . . . . . . . . . . . . . . . . . . . . . . . . . . . . . . . . . . . . . . . .         ",
"        . . . . . . . . . . . . . . . . . . . . . . . . . . . . . . . . . . . . . . . . . . . . . . . . . . . . . . . . . . . .         ",
"        . . . . . . . . . . . . . . . . . . . . . . . . . . . . . . . . . . . . . . . . . . . . . . . . . . . . . . . . . . . .         ",
"        . . . . . . . . . . . . . . . . . . . . . . . . . . . . . . . . . . . . . . . . . . . . . . . . . . . . . . . . . . . .         ",
"        . . . . . . . . . . . . . . . . . . . . . . . . . . . . . . . . . . . . . . . . . . . . . . . . . . . . . . . . . . . .         ",
"                                                                                                                                        ",
"                                                                                                                                        ",
"                                                                                                                                        ",
"                                                                                                                                        ",
"                                                                                                                                        ",
"                                                                                                                                        ",
"                                                                                                                                        ",
"                                                                                                                                        "
};
