/* XPM */
static char *_faf29dd2de4499bf9749532944c0fac1oQbyol5QMHEdzq2[] = {
/* columns rows colors chars-per-pixel */
"61 60 76 1 ",
"  c None",
". c #163BF3",
"X c #173BF3",
"o c #173CF3",
"O c #273FF4",
"+ c #2447F4",
"@ c #3943F6",
"# c #3353F4",
"$ c #3354F4",
"% c #4144F7",
"& c #4A46F7",
"* c #474FF7",
"= c #5C4AF9",
"- c #415FF5",
"; c #654CFA",
": c #7F52FC",
"> c #516DF6",
", c #9957FE",
"< c #965FFD",
"1 c #A158FF",
"2 c #A159FF",
"3 c #A258FF",
"4 c #A259FF",
"5 c #A359FF",
"6 c #A15AFF",
"7 c #A25AFF",
"8 c #A25BFF",
"9 c #876FFB",
"0 c #A863FF",
"q c #AD6DFF",
"w c #AE6DFF",
"e c #AE6EFF",
"r c #B378FF",
"t c #B478FF",
"y c #6D85F7",
"u c #6E84F7",
"i c #7D91F8",
"p c #908CFA",
"a c #8492F9",
"s c #8A9DF9",
"d c #AD88FD",
"f c #B982FF",
"g c #BF8CFF",
"h c #9CA0FA",
"j c #99A9FA",
"k c #A7B5FA",
"l c #C597FF",
"z c #CAA2FF",
"x c #CBA2FF",
"c c #D0ACFF",
"v c #D1ACFF",
"b c #D6B6FF",
"n c #D6B7FF",
"m c #B6C2FB",
"M c #C4CEFC",
"N c #C5CEFC",
"B c #DCC0FF",
"V c #D3DAFD",
"C c #E2CAFF",
"Z c #E7D5FF",
"A c #E7D6FF",
"S c #E8D4FF",
"D c #E8D5FF",
"F c #E2E6FE",
"G c #E2E7FE",
"H c #F3E9FF",
"J c #F3EAFF",
"K c #F4EAFF",
"L c #F1F2FE",
"P c #F1F3FE",
"I c #F9F3FF",
"U c #FAF3FF",
"Y c #F9F4FF",
"T c #F9F5FF",
"R c #FFFEFF",
"E c white",
/* pixels */
"                                                             ",
"                                                             ",
"                                                             ",
"                                                             ",
"                                                             ",
"                                                             ",
"                          444444444                          ",
"                      44444444444444444                      ",
"                    444444444444444444444                    ",
"                  4444444444444444444444444                  ",
"                 444444444444444444444444444                 ",
"               4444444444444444444444444444444               ",
"              444444444444444444444444444444444              ",
"             44444444444444444444444444444444444             ",
"            4444444444444444444444444444444444444            ",
"           444444444444444444444444444444444444444           ",
"           444444444444444444444444444444444444444           ",
"          44444444444444444444444444444444444444444          ",
"         4444444444444444444444444444444444444444444         ",
"         4444444444444444444444444444444444444444444         ",
"        444444444444444444444444444444444444444444444        ",
"        444444444444qfr4444444444440ff444444444444444        ",
"        4444444444fDEEEJl44444444qDEEETb0444444444444        ",
"       4444444444vEEEEEEEb444444tTEEEEEEJq444444444444       ",
"       444444444lEEEEEEEEEx4444qJEEEEEEEED444444444444       ",
"       444444444JEEEEEEEEET0444BEEEEEEEEEEl44444444444       ",
"       44444444gEFEEEEEEEEEv440ELLEEEEEEEED44444444444       ",
"       44444444by.#VEEEEEEED44gk+.sEEEEEEEE04444444444       ",
"      444444444p...-EEEEEEEJ44d...oFEEEEEEEr4444444444       ",
"      444444444*....VEEEEEEE449....jEEEEEEEf44444444444      ",
"      444444444@....MEEEEEEJ44=....yEEEEEEEr44444444444      ",
"      444444444%....MEEEEEEA44;....iEEEEEEE444444444444      ",
"      444444444=...$EEEEEEEl44:...omEEEEEEC444444444444      ",
"      444444444,O.osEEEEEEK4444&..>EEEEEEEf444444444444      ",
"      4444444444<aMEEEEEEEl44440hjLEEEEEEb4444444444444      ",
"      44444444444gUEEEEEEx444444qKEEEEEEB44444444444444      ",
"      444444444444qBUEUAf444444440vKEEAl444444444444444      ",
"      4444444444444444444444444444444444444444444444444      ",
"      4444444444444444444444444444444444444444444444444      ",
"      4444444444444444444444444444444444444444444444444      ",
"      4444444444444444444444444444444444444444444444444      ",
"      4444444444444444444444444444444444444444444444444      ",
"      4444444444444444444444444444444444444444444444444      ",
"      4444444444444444444444444444444444444444444444444      ",
"      4444444444444444444444444444444444444444444444444      ",
"      4444444444444444444444444444444444444444444444444      ",
"      4444444444444444444444444444444444444444444444444      ",
"      4444444444444444444444444444444444444444444444444      ",
"      4444444444444444444444444444444444444444444444444      ",
"      4444444444444444444444444444444444444444444444444      ",
"      4444444444444444444444444444444444444444444444444      ",
"      4444444444444444444444444444444444444444444444444      ",
"      4444444444444444444444444444444444444444444444444      ",
"      4444444444444444444444444444444444444444444444444      ",
"                                                             ",
"                                                             ",
"                                                             ",
"                                                             ",
"                                                             ",
"                                                             "
};
