/* XPM */
static char *_2043ef618784123c2cd7d04f6fac501OJeGldtEoWfUcWea[] = {
/* columns rows colors chars-per-pixel */
"61 60 76 1 ",
"  c None",
". c #163BF3",
"X c #173BF3",
"o c #273EF4",
"O c #2447F4",
"+ c #2547F4",
"@ c #3942F6",
"# c #3353F4",
"$ c #484EF7",
"% c #5348F8",
"& c #5C4AF9",
"* c #654CFA",
"= c #6D4DFA",
"- c #516DF6",
"; c #7962FB",
": c #8853FD",
"> c #9055FE",
", c #A158FF",
"< c #A159FF",
"1 c #A258FF",
"2 c #A259FF",
"3 c #A359FF",
"4 c #A15AFF",
"5 c #A25AFF",
"6 c #A25BFF",
"7 c #9F61FE",
"8 c #A863FF",
"9 c #A864FF",
"0 c #AD6DFF",
"q c #AE6DFF",
"w c #AE6EFF",
"e c #B477FF",
"r c #B378FF",
"t c #6D85F7",
"y c #7B90F8",
"u c #7C91F8",
"i c #8D94FA",
"p c #8B9DF9",
"a c #9F98FB",
"s c #B982FF",
"d c #BF8CFF",
"f c #BF8DFF",
"g c #BC96FE",
"h c #99A9FA",
"j c #A8B5FA",
"k c #C497FF",
"l c #C597FF",
"z c #CAA1FF",
"x c #CBA1FF",
"c c #D0ACFF",
"v c #D1ACFF",
"b c #D6B6FF",
"n c #D7B6FF",
"m c #D6B7FF",
"M c #C4CDFC",
"N c #C5CEFC",
"B c #DCC0FF",
"V c #D3D9FD",
"C c #D2DAFD",
"Z c #E1CBFF",
"A c #E2CBFF",
"S c #E8D5FF",
"D c #EDDFFF",
"F c #E2E7FD",
"G c #EDE0FF",
"H c #F3E9FF",
"J c #F3EAFF",
"K c #F4E9FF",
"L c #EFF2FE",
"P c #F1F3FE",
"I c #F9F4FF",
"U c #F9F5FF",
"Y c #FAF4FF",
"T c #FEFEFF",
"R c #FFFEFF",
"E c white",
/* pixels */
"                                                             ",
"                                                             ",
"                                                             ",
"                                                             ",
"                                                             ",
"                                                             ",
"                          222222222                          ",
"                      22222222222222222                      ",
"                    222222222222222222222                    ",
"                  2222222222222222222222222                  ",
"                 222222222222222222222222222                 ",
"               2222222222222222222222222222222               ",
"              222222222222222222222222222222222              ",
"             22222222222222222222222222222222222             ",
"            2222222222222222222222222222222222222            ",
"           222222222222222222222222222222222222222           ",
"           222222222222222222222222222222222222222           ",
"          22222222222222222222222222222222222222222          ",
"         2222222222222222222222222222222222222222222         ",
"         2222222222222222222222222222222222222222222         ",
"        222222222222222222222222222222222222222222222        ",
"        222222222222228rs8222222222222qsr222222222222        ",
"        2222222222228vIEEEBq22222222zIEEEJl2222222222        ",
"       222222222222qJEEEEEEIr222222mEEEEEEEv2222222222       ",
"       222222222222GEEEEEEEEI82222vEEEEEEEEEf222222222       ",
"       22222222222lEEEEEEEEEEm222qEEEEEEEEEEJ222222222       ",
"       22222222222SEEEEEEEEPPI822zEEEEEEEEPPEs22222222       ",
"       22222222228EEEEEEEEp..jf22SEEEEEEEC+.ym22222222       ",
"      22222222222sEEEEEEEF...+g22JEEEEEEE#...a22222222       ",
"      22222222222sEEEEEEEh....;22EEEEEEEC....$222222222      ",
"      22222222222eEEEEEEEt....&22JEEEEEEN....@222222222      ",
"      222222222228IEEEEEEu....*22ZEEEEEEC....@222222222      ",
"      222222222222SEEEEEEN....:22zEEEEEEL+...=222222222      ",
"      222222222222sEEEEEEE-..%2229IEEEEEEh..o>222222222      ",
"      2222222222222mEEEEEEEji22222fEEEEEEEjh72222222222      ",
"      22222222222222mEEEEEEKq222222vEEEEEEIl22222222222      ",
"      222222222222222lDEEJv822222222qZIEImq222222222222      ",
"      2222222222222222222222222222222222222222222222222      ",
"      2222222222222222222222222222222222222222222222222      ",
"      2222222222222222222222222222222222222222222222222      ",
"      2222222222222222222222222222222222222222222222222      ",
"      2222222222222222222222222222222222222222222222222      ",
"      2222222222222222222222222222222222222222222222222      ",
"      2222222222222222222222222222222222222222222222222      ",
"      2222222222222222222222222222222222222222222222222      ",
"      2222222222222222222222222222222222222222222222222      ",
"      2222222222222222222222222222222222222222222222222      ",
"      2222222222222222222222222222222222222222222222222      ",
"      2222222222222222222222222222222222222222222222222      ",
"      2222222222222222222222222222222222222222222222222      ",
"      2222222222222222222222222222222222222222222222222      ",
"      2222222222222222222222222222222222222222222222222      ",
"      2222222222222222222222222222222222222222222222222      ",
"      2222222222222222222222222222222222222222222222222      ",
"                                                             ",
"                                                             ",
"                                                             ",
"                                                             ",
"                                                             ",
"                                                             "
};
