/* XPM */
static char *_5d3794f4e8c476d9fb3eaa9da0ebe03k3hFP9YPE85iYmce[] = {
/* columns rows colors chars-per-pixel */
"60 60 2 1 ",
"  c gray2",
". c #163BF3",
/* pixels */
"                                                            ",
"                                                            ",
"                                                            ",
"                                                            ",
"                                                            ",
"                                                            ",
"      ................................................      ",
"      ................................................      ",
"      ................................................      ",
"      ...                                          ...      ",
"      ...                                          ...      ",
"      ...                                          ...      ",
"      ...                                          ...      ",
"      ...                                          ...      ",
"      ...                                          ...      ",
"      ...                                          ...      ",
"      ...                                          ...      ",
"      ...                                          ...      ",
"      ...                                          ...      ",
"      ...                                          ...      ",
"      ...                                          ...      ",
"      ...                                          ...      ",
"      ...                                          ...      ",
"      ...                                          ...      ",
"      ...                                          ...      ",
"      ...                                          ...      ",
"      ...                                          ...      ",
"      ...                                          ...      ",
"      ...                                          ...      ",
"      ...                                          ...      ",
"      ...                                          ...      ",
"      ...                                          ...      ",
"      ...                                          ...      ",
"      ...                                          ...      ",
"      ...                                          ...      ",
"      ...                                          ...      ",
"      ...                                          ...      ",
"      ...                                          ...      ",
"      ...                                          ...      ",
"      ...                                          ...      ",
"      ...                                          ...      ",
"      ...                                          ...      ",
"      ...                                          ...      ",
"      ...                                          ...      ",
"      ...                                          ...      ",
"      ...                                          ...      ",
"      ...                                          ...      ",
"      ...                                          ...      ",
"      ...                                          ...      ",
"      ...                                          ...      ",
"      ...                                          ...      ",
"      ................................................      ",
"      ................................................      ",
"      ................................................      ",
"                                                            ",
"                                                            ",
"                                                            ",
"                                                            ",
"                                                            ",
"                                                            "
};
